<?xml version="1.0" encoding="utf-8"?>
<!-- Generator: Adobe Illustrator 27.5.0, SVG Export Plug-In . SVG Version: 6.00 Build 0)  -->
<svg version="1.1" xmlns="http://www.w3.org/2000/svg" xmlns:xlink="http://www.w3.org/1999/xlink" x="0px" y="0px"
	 viewBox="0 0 750 500" style="enable-background:new 0 0 750 500;" xml:space="preserve">
<g id="BACKGROUND_x2B_">
	<rect style="fill:#66AED8;" width="750" height="500"/>
	<rect y="348.528" style="fill:#0F7EBE;" width="750" height="151.472"/>
</g>
<g id="OBJECTS">
	<g>
		<rect x="94.469" y="62.64" style="fill:#2D6282;" width="177.486" height="205.675"/>
		<rect x="107.593" y="122.175" style="fill:#214961;" width="58.806" height="144.424"/>
		<rect x="178.336" y="161.596" style="fill:#214961;" width="36.46" height="105.003"/>
		<rect x="226.193" y="149.144" style="fill:#214961;" width="43.042" height="117.455"/>
		
			<rect x="94.469" y="62.64" style="fill:none;stroke:#C9E4FF;stroke-width:9.8913;stroke-miterlimit:10;" width="177.486" height="205.675"/>
		<g>
			<g>
				<g>
					<rect x="106.389" y="62.941" style="fill:#2B8AC2;" width="2.407" height="112.662"/>
					<rect x="113.699" y="62.941" style="fill:#2B8AC2;" width="2.407" height="112.662"/>
				</g>
				<g>
					<rect x="249.457" y="62.941" style="fill:#2B8AC2;" width="2.407" height="112.662"/>
					<rect x="256.767" y="62.941" style="fill:#2B8AC2;" width="2.407" height="112.662"/>
				</g>
				<rect x="83.326" y="52.412" style="fill:#70C1F0;" width="199.747" height="21.058"/>
				<rect x="83.326" y="81.291" style="fill:#78CDFF;" width="199.747" height="10.529"/>
				<rect x="83.326" y="99.101" style="fill:#78CDFF;" width="199.747" height="10.529"/>
				<rect x="83.326" y="116.91" style="fill:#78CDFF;" width="199.747" height="10.529"/>
				<rect x="83.326" y="134.72" style="fill:#78CDFF;" width="199.747" height="10.529"/>
				<rect x="83.326" y="152.529" style="fill:#78CDFF;" width="199.747" height="10.529"/>
				<rect x="83.326" y="170.339" style="fill:#78CDFF;" width="199.747" height="10.529"/>
				<path style="fill:#78CDFF;" d="M111.804,49.003h-1.003c-3.434,0-6.217,2.783-6.217,6.217l0,0h13.437l0,0
					C118.021,51.786,115.238,49.003,111.804,49.003z"/>
				<path style="fill:#78CDFF;" d="M253.884,49.003h-1.003c-3.434,0-6.217,2.783-6.217,6.217l0,0h13.437l0,0
					C260.101,51.786,257.318,49.003,253.884,49.003z"/>
			</g>
		</g>
	</g>
	<ellipse style="fill:#0C6CA3;" cx="370.982" cy="411.984" rx="301.877" ry="45.337"/>
	<rect x="315.482" y="279.728" style="fill:#FBB13C;" width="10.172" height="139.538"/>
	<rect x="584.419" y="279.728" style="fill:#FBB13C;" width="10.172" height="139.538"/>
	<path style="fill:#D81159;" d="M603.882,279.88H309.333c-6.387,0-11.564-5.177-11.564-11.564v0c0-6.387,5.177-11.564,11.564-11.564
		h294.549c6.387,0,11.564,5.177,11.564,11.564v0C615.446,274.702,610.269,279.88,603.882,279.88z"/>
	<ellipse style="fill:#AD0D48;" cx="458.356" cy="266.599" rx="49.135" ry="6.317"/>
	<path style="fill:#FFFFFF;" d="M529.502,248.872H384.349c-3.779,0-6.843-3.064-6.843-6.843v-81.325
		c0-3.779,3.064-6.843,6.843-6.843h145.153c3.779,0,6.843,3.064,6.843,6.843v81.325
		C536.345,245.808,533.281,248.872,529.502,248.872z"/>
	<rect x="389.307" y="161.596" style="fill:#73D2DE;" width="135.236" height="77.243"/>
	<rect x="389.457" y="229.698" style="fill:#569DA6;" width="135.236" height="9.019"/>
	<path style="fill:#B0F7FF;" d="M432.576,248.872l-6.363,11.998c-1.199,2.261,0.44,4.985,2.999,4.985h55.646
		c2.507,0,4.149-2.623,3.053-4.878l-5.881-12.105H432.576z"/>
	<polygon style="fill:#7EE7F2;" points="484.504,253.964 482.03,248.872 432.576,248.872 429.875,253.964 	"/>
	<circle style="fill:#5399C2;" cx="593.215" cy="114.35" r="39.105"/>
	<g>
		<ellipse style="fill:#FBB13C;" cx="589.505" cy="108.948" rx="39.105" ry="40.196"/>
		<path style="fill:#FB8F3C;" d="M613.721,77.399c7.324,7.305,11.881,17.523,11.881,28.842c0,22.199-17.508,40.195-39.105,40.195
			c-9.148,0-17.555-3.237-24.215-8.646c7.041,7.023,16.638,11.354,27.224,11.354c21.597,0,39.105-17.996,39.105-40.196
			C628.61,96.151,622.785,84.76,613.721,77.399z"/>
		<ellipse style="fill:#FFFFFF;" cx="589.505" cy="108.948" rx="30.092" ry="30.931"/>
		<path style="fill:#E3E3E3;" d="M615.727,93.779c1.328,3.49,2.065,7.285,2.065,11.259c0,17.083-13.473,30.931-30.092,30.931
			c-11.255,0-21.061-6.356-26.222-15.762c4.381,11.514,15.274,19.673,28.027,19.673c16.62,0,30.092-13.848,30.092-30.931
			C619.597,103.434,618.187,98.262,615.727,93.779z"/>
		
			<polyline style="fill:none;stroke:#FB9B3C;stroke-width:3.7102;stroke-linecap:round;stroke-linejoin:round;stroke-miterlimit:10;" points="
			571.766,90.918 589.505,116.829 595.23,94.227 		"/>
	</g>
	<g>
		
			<path style="fill:none;stroke:#FFFFFF;stroke-width:1.3913;stroke-linecap:round;stroke-linejoin:round;stroke-miterlimit:10;" d="
			M546.951,351.54h-60.165v46.327c0,12.737,10.326,23.063,23.063,23.063h14.038c12.737,0,23.063-10.326,23.063-23.063V351.54z"/>
		<g>
			
				<line style="fill:none;stroke:#FFFFFF;stroke-width:1.3913;stroke-linecap:round;stroke-linejoin:round;stroke-miterlimit:10;" x1="486.786" y1="369.69" x2="504.685" y2="351.79"/>
			
				<line style="fill:none;stroke:#FFFFFF;stroke-width:1.3913;stroke-linecap:round;stroke-linejoin:round;stroke-miterlimit:10;" x1="486.786" y1="384.63" x2="519.852" y2="351.565"/>
			
				<line style="fill:none;stroke:#FFFFFF;stroke-width:1.3913;stroke-linecap:round;stroke-linejoin:round;stroke-miterlimit:10;" x1="486.835" y1="399.311" x2="534.355" y2="351.79"/>
			
				<line style="fill:none;stroke:#FFFFFF;stroke-width:1.3913;stroke-linecap:round;stroke-linejoin:round;stroke-miterlimit:10;" x1="492.158" y1="412.658" x2="546.604" y2="358.212"/>
			
				<line style="fill:none;stroke:#FFFFFF;stroke-width:1.3913;stroke-linecap:round;stroke-linejoin:round;stroke-miterlimit:10;" x1="503.792" y1="419.285" x2="545.935" y2="377.143"/>
			
				<line style="fill:none;stroke:#FFFFFF;stroke-width:1.3913;stroke-linecap:round;stroke-linejoin:round;stroke-miterlimit:10;" x1="522.183" y1="420.93" x2="546.099" y2="397.014"/>
		</g>
		<g>
			
				<line style="fill:none;stroke:#FFFFFF;stroke-width:1.3913;stroke-linecap:round;stroke-linejoin:round;stroke-miterlimit:10;" x1="546.604" y1="369.69" x2="528.705" y2="351.79"/>
			
				<line style="fill:none;stroke:#FFFFFF;stroke-width:1.3913;stroke-linecap:round;stroke-linejoin:round;stroke-miterlimit:10;" x1="546.604" y1="384.63" x2="513.538" y2="351.565"/>
			
				<line style="fill:none;stroke:#FFFFFF;stroke-width:1.3913;stroke-linecap:round;stroke-linejoin:round;stroke-miterlimit:10;" x1="546.555" y1="399.311" x2="499.035" y2="351.79"/>
			
				<line style="fill:none;stroke:#FFFFFF;stroke-width:1.3913;stroke-linecap:round;stroke-linejoin:round;stroke-miterlimit:10;" x1="541.232" y1="412.658" x2="486.786" y2="358.212"/>
			
				<line style="fill:none;stroke:#FFFFFF;stroke-width:1.3913;stroke-linecap:round;stroke-linejoin:round;stroke-miterlimit:10;" x1="529.598" y1="419.285" x2="487.455" y2="377.143"/>
			
				<line style="fill:none;stroke:#FFFFFF;stroke-width:1.3913;stroke-linecap:round;stroke-linejoin:round;stroke-miterlimit:10;" x1="511.207" y1="420.93" x2="487.291" y2="397.014"/>
		</g>
		<rect x="486.185" y="351.54" style="fill:#FFFFFF;" width="60.766" height="11.03"/>
	</g>
	<g>
		<rect x="401.801" y="167.327" style="fill:#47828A;" width="39.107" height="58.059"/>
		<rect x="409.221" y="171.539" style="fill:#5DABB5;" width="25.269" height="5.615"/>
		<rect x="408.218" y="182.97" style="fill:#5DABB5;" width="10.027" height="2.006"/>
		<rect x="408.218" y="186.78" style="fill:#5DABB5;" width="10.027" height="2.006"/>
		<rect x="408.218" y="190.591" style="fill:#5DABB5;" width="10.027" height="2.006"/>
		<rect x="408.218" y="194.401" style="fill:#5DABB5;" width="10.027" height="2.006"/>
		<rect x="408.218" y="198.212" style="fill:#5DABB5;" width="10.027" height="2.005"/>
		<rect x="408.218" y="202.022" style="fill:#5DABB5;" width="10.027" height="2.006"/>
		<rect x="408.218" y="205.833" style="fill:#5DABB5;" width="28.177" height="2.006"/>
		<rect x="408.218" y="209.643" style="fill:#5DABB5;" width="28.177" height="2.006"/>
		<rect x="408.218" y="213.453" style="fill:#5DABB5;" width="28.177" height="2.006"/>
		<rect x="408.218" y="217.264" style="fill:#5DABB5;" width="28.177" height="2.006"/>
		<rect x="421.856" y="182.97" style="fill:#5DABB5;" width="14.54" height="19.052"/>
	</g>
	<rect x="445.721" y="177.154" style="fill:#D81159;" width="66.783" height="6.819"/>
	<rect x="445.721" y="183.973" style="fill:#FFFFFF;" width="66.783" height="38.104"/>
	<circle style="fill:#D86A92;" cx="456.551" cy="194.401" r="7.42"/>
	<rect x="467.581" y="189.387" style="fill:#D86A92;" width="32.288" height="2.407"/>
	<rect x="467.581" y="193.198" style="fill:#D86A92;" width="32.288" height="4.412"/>
	<rect x="468.383" y="200.919" style="fill:#D86A92;" width="14.339" height="17.448"/>
	<rect x="485.68" y="200.919" style="fill:#D86A92;" width="14.339" height="17.448"/>
	<path style="fill:#FFFFFF;" d="M508.994,180.563c0-0.831-0.673-1.504-1.504-1.504c-0.831,0-1.504,0.673-1.504,1.504
		c0,0.831,0.673,1.504,1.504,1.504C508.321,182.067,508.994,181.394,508.994,180.563z"/>
	<circle style="fill:#FFFFFF;" cx="500.02" cy="180.563" r="1.504"/>
	<path style="fill:#FFFFFF;" d="M494.053,180.563c0-0.831-0.674-1.504-1.504-1.504s-1.504,0.673-1.504,1.504
		c0,0.831,0.673,1.504,1.504,1.504S494.053,181.394,494.053,180.563z"/>
	<g>
		<rect x="338.635" y="279.88" style="fill:#AD0D48;" width="83.672" height="32.145"/>
		<polygon style="fill:#940B3E;" points="414.695,279.88 414.695,305.013 338.635,305.013 338.635,312.025 422.307,312.025 
			422.307,279.88 		"/>
		<path style="fill:#D86A92;" d="M393.578,294.074h-27.275c-1.551,0-2.808-1.257-2.808-2.808l0,0c0-1.551,1.257-2.808,2.808-2.808
			h27.275c1.551,0,2.808,1.257,2.808,2.808l0,0C396.386,292.817,395.129,294.074,393.578,294.074z"/>
	</g>
	<g>
		<rect x="474.732" y="279.88" style="fill:#AD0D48;" width="83.672" height="32.145"/>
		<polygon style="fill:#940B3E;" points="550.792,279.88 550.792,305.013 474.732,305.013 474.732,312.025 558.404,312.025 
			558.404,279.88 		"/>
		<path style="fill:#D86A92;" d="M528.619,294.074h-27.275c-1.551,0-2.808-1.257-2.808-2.808l0,0c0-1.551,1.257-2.808,2.808-2.808
			h27.275c1.551,0,2.808,1.257,2.808,2.808l0,0C531.427,292.817,530.17,294.074,528.619,294.074z"/>
	</g>
	<path style="fill:#EBF5FF;" d="M417.406,96.962c-0.869-3.782-3-7.151-5.346-10.242c4.059,0.262,6.292-5.527,4.154-8.987
		c-2.139-3.46-6.626-4.657-10.693-4.719c0.985-4.793-1.957-10.086-6.547-11.78c-4.59-1.695-10.266,0.418-12.631,4.701
		c-3.291-7.161-13.113-10.392-20.013-6.584c-5.73,3.163-7.237,9.184-7.056,15.218c0.1,3.314,0.914,3.587-1.588,5.148
		c-2.29,1.429-5.072-0.036-6.518,3.469c-1.308,3.17,0.908,7.153,4.141,8.04c-3.916-0.413-7.998,2.169-9.371,5.91
		c-1.5,4.089,0.165,9.02,3.646,11.638c3.481,2.618,8.45,2.921,12.388,1.061c-4.947,4.92-3.643,14.498,2.439,17.916
		c6.083,3.418,14.942-0.448,16.572-7.232c1.72,3.645,5.311,6.162,9.232,7.019l12.811,17.711l-3.417-19.246
		c5.17-3.331,7.573-10.616,5.067-16.297c3.179,2.225,7.93,1.165,10.482-1.758C417.71,105.024,418.276,100.744,417.406,96.962z"/>
	<path style="fill:#EBF5FF;" d="M521.463,83.499c0.236-4.576-2.988-8.953-7.248-10.639c-4.26-1.686-9.271-0.883-13.162,1.535
		c1.861-2.909,0.341-7.147-2.64-8.891c-2.981-1.744-6.857-1.333-9.921,0.262c-3.063,1.595-5.456,4.214-7.634,6.895
		c0.543-7.682-5.711-14.878-13.217-16.599c-7.506-1.721-15.598,1.393-21.05,6.832c-4.417,4.406-7.386,10.601-6.712,16.803
		c0.234,2.159,0.979,4.258,2.112,6.108c0.686,1.121,3.187,2.955,3.279,4.185c0.277,3.694-4.49,3.816-6.863,5.466
		c-5.642,3.922-6.682,12.382-2.076,17.555c3.557,3.994,9.973,5.075,14.642,2.467c-3.396,3.49-3.22,9.604-0.072,13.32
		c3.148,3.715,8.638,4.991,13.33,3.688c4.692-1.303,8.547-4.886,10.869-9.167c1.936,4.549,5.842,8.084,10.411,9.944l2.745,15.88
		l6.903-14.605c0.433-0.061,0.866-0.126,1.295-0.221c8.481-1.871,15.021-10.282,14.744-18.962c3.406,1.22,7.39-1.029,8.873-4.329
		c1.483-3.3,0.853-7.242-0.796-10.463c-1.649-3.221-4.211-5.866-6.734-8.459C517.12,92.283,521.227,88.074,521.463,83.499z"/>
	<path style="fill:#EBF5FF;" d="M354.895,167.717l18.535,5.826l-14.795-15.216c-0.513-4.935-4.189-9.588-9.081-10.725
		c3.316-3.922,3.7-10.046,0.9-14.351c-2.801-4.305-8.555-6.436-13.484-4.994c4.491-4.597,2.13-13.711-4.027-15.55
		c-8.281-2.474-9.748,8.298-16.638,6.182c-6.917-2.124-10.901-8.613-19.171-3.254c-7.669,4.97-8.381,17.722-1.313,23.515
		c-5.58-0.308-11.133,3.492-12.868,8.804c-1.735,5.312,0.506,11.657,5.192,14.702c-6.627,4.637-7.579,15.499-1.86,21.218
		c5.72,5.719,16.581,4.766,21.218-1.862c-0.6,6.375,4.681,12.716,11.06,13.28c6.379,0.564,12.69-4.752,13.218-11.134
		c0.305,3.763,4.675,6.352,8.34,5.446c3.665-0.906,6.236-4.546,6.659-8.298c0.424-3.752-0.983-7.518-3.075-10.66
		C347.608,171.721,351.904,170.407,354.895,167.717z"/>
	<g>
		<g>
			<g>
				<path style="fill:#80EAF7;" d="M363.305,365.176c-2.67-5.066-6.386-9.387-10.784-12.945
					c-4.534-7.751-12.423-14.039-21.11-16.681c-15.719-4.781-32.684-0.711-48.279,4.459c-15.595,5.17-31.285,11.518-47.713,11.283
					c-16.428-0.236-34.137-9.164-38.552-24.989c-3.192-11.443,1.089-23.471,2.055-35.311c2.672-32.739-38.139-88.377-69.782-48.692
					c-8.951,11.226-10.821,26.643-9.403,40.931c1.419,14.288,5.732,28.135,7.779,42.347c2.047,14.212,1.594,29.516-5.799,41.824
					c-2.714,4.518-6.303,8.529-8.421,13.356c-4.325,9.859-1.594,21.886,5.131,30.294c6.725,8.408,16.866,13.535,27.31,16.15
					c7.395,1.851,14.911,2.538,22.455,2.369c11.582,0.504,25.157-1.619,30.314-2.762c14.026-3.11,28.032-7.374,42.395-7.044
					c23.682,0.545,45.722,13.51,69.399,14.24c17.486,0.539,35.506-6.294,46.698-19.74
					C368.19,400.82,371.461,380.653,363.305,365.176z"/>
				<g>
					<g>
						<path style="fill:#71CFDB;" d="M192.655,279.948c-0.967,11.84-5.248,23.869-2.055,35.311c1.221,4.378,3.464,8.225,6.411,11.51
							c-0.047-0.156-0.1-0.308-0.144-0.466c-3.192-11.443,1.089-23.471,2.055-35.311c1.005-12.316-4.144-27.871-12.643-40.374
							C190.902,260.507,193.38,271.069,192.655,279.948z"/>
						<path style="fill:#71CFDB;" d="M363.305,365.176c-1.195-2.267-2.609-4.377-4.191-6.344c5.354,14.686,1.707,32.268-8.384,44.39
							c-11.192,13.446-29.212,20.279-46.698,19.74c-23.677-0.73-45.717-13.695-69.399-14.24
							c-14.363-0.331-28.369,3.934-42.395,7.044c-5.157,1.143-18.731,3.266-30.314,2.762c-7.544,0.169-15.061-0.518-22.455-2.369
							c-10.082-2.524-19.871-7.399-26.588-15.296c1.243,3.683,3.131,7.171,5.545,10.19c6.725,8.408,16.866,13.535,27.31,16.15
							c7.395,1.851,14.911,2.538,22.455,2.369c11.582,0.504,25.157-1.619,30.314-2.762c14.026-3.11,28.032-7.374,42.395-7.044
							c23.682,0.545,45.722,13.51,69.399,14.24c17.486,0.539,35.506-6.294,46.698-19.74
							C368.19,400.82,371.461,380.653,363.305,365.176z"/>
					</g>
				</g>
				<path style="fill:#91F3FF;" d="M343.288,397.038c-2.538,3.943-6.199,7.045-10.09,9.663
					c-10.728,7.217-24.313,11.133-36.799,7.776c-6.289-1.691-11.954-5.093-17.859-7.837c-5.905-2.744-12.436-4.88-18.855-3.788
					c-3.703,0.63-8.176,2.082-10.711-0.689c-1.869-2.043-1.392-5.356-0.019-7.761c3.947-6.911,13.31-8.872,21.106-7.27
					c7.796,1.602,14.733,5.897,22.147,8.79c7.414,2.893,16.221,4.252,23.031,0.135c4.065-2.458,6.837-6.517,9.748-10.271
					c2.911-3.754,6.344-7.483,10.919-8.761c4.053-1.132,10.46,0.641,11.25,5.384C347.884,386.79,345.592,393.459,343.288,397.038z"
					/>
			</g>
			<g>
				<g>
					<g>
						<g>
							<g>
								<path style="fill:#196361;" d="M318.908,336.916L214.845,374.05c-12.343,4.404-25.661-1.778-28.97-13.448v0
									c-3.341-11.784,4.94-24.133,17.917-26.716l108.345-21.573c7.036-1.401,13.83,2.429,15.641,8.819l0,0
									C329.61,327.59,325.738,334.479,318.908,336.916z"/>
							</g>
						</g>
						<g>
							<g>
								<g>
									<path style="fill:#218380;" d="M329.223,349.357l-103.37,39.02c-12.261,4.628-25.689-1.311-29.209-12.919l0,0
										c-3.555-11.721,4.501-24.218,17.428-27.038l107.935-23.539c7.01-1.529,13.872,2.177,15.799,8.533l0,0
										C339.753,339.838,336.007,346.796,329.223,349.357z"/>
									<path style="fill:#218380;" d="M199.042,344.577l46.507,8.207l-12.289,22.689l-22.707,13.483
										c-22.733,0-31.48-20.807-29.986-29.274l0.438-2.481C182.499,348.735,190.575,343.083,199.042,344.577z"/>
								</g>
							</g>
							<g>
								<g>
									<path style="fill:#4AA6FF;" d="M418.343,387.463l3.979-8.314c0.749-1.565,2.417-2.456,4.139-2.241
										c3.117,0.389,7.89,0.584,9.505-1.524c2.301-3.002,5.07-15.622,14.424-10.648c1.353,0.72,1.947,2.35,1.437,3.795
										c-1.719,4.876-6.057,15.73-11.091,17.263c-6.523,1.986-10.511,5.651-12.942,7.97c-1.939,1.85-5.869,0.975-8.655-1.715
										C417.91,390.863,417.606,389.004,418.343,387.463z"/>
									<path style="fill:#FFAF91;" d="M415.671,374.237l6.667,4.033c1.881,1.138,2.623,3.497,1.731,5.507l-0.967,2.179
										c-0.86,1.939-2.99,2.979-5.048,2.466l-10.906-2.721L415.671,374.237z"/>
								</g>
								<path style="fill:#FBB13C;" d="M450.39,364.736c-9.354-4.974-12.123,7.645-14.424,10.648
									c-1.616,2.108-6.389,1.913-9.505,1.524c-1.722-0.215-3.39,0.676-4.139,2.241l-3.979,8.314
									c-0.737,1.541-0.433,3.4,0.796,4.586c1.013,0.978,2.178,1.712,3.343,2.167l0,0c0,0,13.002,5.91,15.628,1.838
									c2.626-4.072,2.351-5.885,1.71-6.321c-0.332-0.226-2.331-1.071-4.184-1.834c1.501-0.794,3.19-1.523,5.102-2.105
									c5.034-1.533,9.372-12.386,11.091-17.263C452.337,367.086,451.744,365.456,450.39,364.736z"/>
								<path style="fill:#9E6F26;" d="M450.39,364.736c-0.993-0.528-1.907-0.847-2.759-1.011c0.081,0.041,0.159,0.073,0.242,0.117
									c1.353,0.72,1.947,2.349,1.437,3.795c-1.719,4.876-6.057,15.729-11.091,17.262c-1.912,0.582-3.601,1.311-5.102,2.105
									c1.853,0.763,3.852,1.608,4.184,1.834c0.641,0.437,0.916,2.25-1.71,6.321c-1.562,2.422-6.796,1.312-10.78,0.015
									c3.865,1.483,11.371,3.867,13.298,0.88c2.626-4.072,2.351-5.885,1.71-6.321c-0.332-0.226-2.331-1.071-4.184-1.834
									c1.501-0.794,3.19-1.523,5.102-2.105c5.034-1.533,9.372-12.386,11.091-17.263
									C452.337,367.086,451.744,365.456,450.39,364.736z"/>
							</g>
							<path style="fill:#218380;" d="M408.197,390.051l-87.911-45.693c-5.196-2.701-7.219-9.103-4.518-14.299l0,0
								c2.701-5.196,9.103-7.219,14.299-4.518l87.801,45.637c1.51,0.785,2.098,2.645,1.313,4.155l-6.995,13.458
								C411.432,390.24,409.646,390.805,408.197,390.051z"/>
						</g>
						<g>
							<g>
								<path style="fill:#4AA6FF;" d="M381.233,401.032l7.929-4.699c1.493-0.885,3.375-0.698,4.686,0.438
									c2.374,2.056,6.233,4.872,8.749,4.017c3.581-1.217,12.899-10.167,17.909-0.832c0.725,1.351,0.312,3.035-0.915,3.954
									c-4.14,3.098-13.779,9.708-18.816,8.183c-6.527-1.975-11.879-1.146-15.189-0.57c-2.64,0.46-5.42-2.453-6.241-6.237
									C378.982,403.617,379.763,401.903,381.233,401.032z"/>
								<path style="fill:#FFAF91;" d="M386.365,388.552l3.3,7.059c0.931,1.992,0.236,4.365-1.622,5.54l-2.015,1.274
									c-1.793,1.134-4.142,0.815-5.567-0.757l-7.553-8.324L386.365,388.552z"/>
							</g>
							<path style="fill:#FBB13C;" d="M420.506,399.956c-5.01-9.335-14.328-0.385-17.909,0.832
								c-2.515,0.854-6.374-1.961-8.749-4.017c-1.312-1.136-3.194-1.323-4.687-0.438l-7.929,4.699
								c-1.47,0.871-2.25,2.585-1.888,4.255c0.299,1.376,0.858,2.634,1.574,3.66l0,0c0,0,7.522,12.141,11.968,10.216
								c4.446-1.925,5.225-3.585,4.935-4.304c-0.15-0.372-1.342-2.186-2.458-3.851c1.689,0.174,3.498,0.507,5.411,1.086
								c5.037,1.524,14.676-5.086,18.816-8.183C420.818,402.991,421.231,401.307,420.506,399.956z"/>
							<path style="fill:#9E6F26;" d="M420.506,399.956c-0.532-0.991-1.114-1.764-1.731-2.374c0.045,0.079,0.092,0.149,0.136,0.232
								c0.725,1.351,0.312,3.035-0.915,3.954c-4.139,3.098-13.779,9.708-18.816,8.183c-1.913-0.579-3.722-0.912-5.411-1.086
								c1.116,1.664,2.308,3.478,2.458,3.851c0.29,0.719-0.489,2.379-4.935,4.304c-2.645,1.145-6.378-2.688-8.969-5.981
								c2.388,3.381,7.302,9.536,10.564,8.124c4.446-1.925,5.225-3.585,4.935-4.304c-0.15-0.372-1.342-2.186-2.458-3.851
								c1.689,0.174,3.498,0.507,5.411,1.086c5.037,1.524,14.676-5.086,18.816-8.183
								C420.818,402.991,421.231,401.307,420.506,399.956z"/>
						</g>
						<path style="fill:#196361;" d="M371.978,399.876l-61.767-71.156c-3.651-4.206-3.201-10.575,1.005-14.226l0,0
							c4.206-3.651,10.575-3.201,14.226,1.005l61.69,71.068c1.061,1.222,0.93,3.073-0.292,4.134l-10.893,9.456
							C374.773,401.175,372.996,401.049,371.978,399.876z"/>
						<path style="fill:#196361;" d="M340.597,363.725c0,0-28.571-36.667-65.842-28.538l16.455-10.843l25.501-4.091l11.521,20.737
							L340.597,363.725z"/>
					</g>
					<g>
						<g>
							<path style="fill:#361220;" d="M186.622,199.91c-2.772-4.439-6.464-8.323-10.807-11.251
								c-2.215-1.493-4.601-2.736-7.109-3.659c-0.783-0.288-2.542-1.216-3.384-0.845c-0.959,0.422-1.253,2.35-1.494,3.231
								c-0.611,2.237-0.383,4.606-0.15,6.912c0.927,9.184,1.855,18.371,3.151,27.511c1.104,7.782,2.523,15.667,6.139,22.646
								c1.099,2.121,2.531,4.26,4.738,5.177c1.834,0.762,3.981,0.541,5.781-0.298c1.8-0.839,3.285-2.246,4.508-3.811
								c4.026-5.149,5.355-11.932,5.505-18.467C193.719,217.59,191.636,207.94,186.622,199.91z"/>
							<path style="fill:#361220;" d="M171.773,246.865c-2.646-0.556-5.384-0.144-8.087-0.096
								c-8.899,0.158-17.782-3.911-23.475-10.753c-5.693-6.841-8.081-16.315-6.309-25.038c1.772-8.723,7.666-16.515,15.577-20.593
								c-0.54,0.278-4.036-0.857-4.863-0.908c-1.651-0.101-3.314-0.002-4.943,0.282c-3.374,0.587-6.621,1.972-9.34,4.059
								c-5.287,4.057-8.685,13.409-10.062,19.745c-1.344,6.179-0.974,12.874,1.92,18.497c1.953,3.795,5.025,7.11,5.921,11.283
								c1.887,8.795-6.548,17.272-4.966,26.127c0.912,5.106,5.091,9.525,4.651,14.693c-0.15,1.755-0.821,3.564-0.56,5.25
								c-0.055,0.245-0.116,0.489-0.165,0.736c-0.757,3.782-0.318,8.458,3.021,10.388c3.664,2.118,9.102-0.147,12.115,2.824
								c1.249,1.232,1.694,3.071,2.787,4.443c2.427,3.046,7.261,2.842,10.72,1.052c6.172-3.194,9.668-10.088,10.83-16.94
								c1.162-6.852,0.389-13.86,0.205-20.807c-0.064-2.431-0.116-5.023-1.432-7.053c2.013-1.258,4.027-2.517,6.04-3.775
								c3.098-1.936,6.616-4.72,6.085-8.334C177.048,249.273,174.419,247.421,171.773,246.865z"/>
						</g>
						<g>
							<g>
								<path style="fill:#FB8F3C;" d="M243.919,290.322c-7.161-11.035-16.889-20.041-25.439-30.026
									c-3.399-3.969-13.648-8.793-17.905-8.333c-5.112,0.552-0.41,7.911,0.092,12.009c1.049,8.573,7.938,15.133,14.68,20.531
									c6.742,5.398,14.141,10.913,17.012,19.059c0.035,0.099,0.066,0.2,0.099,0.301c5.77-0.923,11.384-2.53,16.963-4.319
									C247.705,296.401,245.867,293.325,243.919,290.322z"/>
								<path style="fill:#FBB13C;" d="M191.459,251.534L191.459,251.534c-24.138-0.106-44.727,14.788-37.704,35.091l28.186,82.936
									l51.32-41.542l-15.31-48.505C213.212,264.019,213.118,249.914,191.459,251.534z"/>
								<path style="fill:#FB8F3C;" d="M154.171,342.963c0.992,3.8,2.565,8.026,6.214,9.481c3.461,1.38,7.319-0.329,10.605-2.085
									c12.317-6.585,24.01-14.334,34.873-23.112c1.446-1.168,2.933-2.43,3.619-4.158c1.295-3.261-0.661-6.829-2.546-9.789
									c-0.742-1.165-1.605-2.422-2.941-2.772c-1.636-0.429-3.243,0.667-4.594,1.685c-7.516,5.661-15.451,10.767-23.719,15.26
									c-1.623,0.882-3.538,1.759-5.244,1.052c-1.426-0.591-2.214-2.113-2.723-3.57c-2.846-8.155-0.513-17.082,1.38-25.51
									c1.893-8.427,3.175-17.852-1.361-25.202c-2.169-3.514-7.661-7.999-11.998-5.237c-3.612,2.3-3.665,9.826-4.209,13.493
									c-1.929,13.004-2.411,26.248-1.11,39.339C151.126,328.961,152.362,336.035,154.171,342.963z"/>
								<path style="fill:#FB8F3C;" d="M249.42,299.543c-5.579,1.789-11.193,3.396-16.963,4.319
									c0.452,1.383,0.699,2.927,0.005,4.188c-0.89,1.618-2.934,2.129-4.752,2.454c-9.263,1.655-18.649,2.625-28.055,2.899
									c-1.691,0.049-3.631,0.197-4.64,1.554c-0.824,1.108-0.713,2.629-0.565,4.002c0.377,3.488,1.078,7.497,4.127,9.235
									c1.615,0.921,3.564,0.977,5.424,0.986c13.966,0.069,27.938-1.183,41.67-3.735c3.663-0.681,7.744-1.756,9.584-4.996
									c1.94-3.415,0.529-7.697-1.07-11.285C252.727,305.895,251.135,302.686,249.42,299.543z"/>
								<path style="fill:#FBC83C;" d="M189.728,345.578c-0.585,2.379-1.278,5.431,0.728,6.838c1.737,1.218,4.101,0.112,5.896-1.018
									c11.168-7.036,21.741-15.017,31.569-23.829c-3.816-1.331-6.957-4.469-8.291-8.284c-1.334-3.815-0.834-8.226,1.321-11.646
									c0.013-0.021-9.426-2.733-20.636,0.909c-10.378,3.373-18.355,11.63-18.355,11.63s5.324,4.344,6.591,9.409
									C189.864,334.85,191.026,340.299,189.728,345.578z"/>
							</g>
							<g>
								<path style="fill:#FFB17D;" d="M170.596,253.842c-0.403,2.858-2.115,5.856-0.809,8.429c0.803,1.582,2.524,2.438,4.137,3.176
									c3.575,1.637,7.175,3.217,10.799,4.74c1.278,0.537,2.742,1.068,4.005,0.496c1.344-0.608,1.885-2.197,2.287-3.616
									c0.82-2.897,1.64-5.794,2.46-8.691c0.485-1.711,0.95-3.629,0.108-5.196c-0.739-1.375-2.274-2.075-3.634-2.842
									c-6.868-3.874-11.181-11.874-10.643-19.741c-0.003,0.041-7.513,3.121-8.258,3.579c-2.292,1.41-5.862,3.604-7.177,6.045
									c-1.584,2.942,2.224,4.125,3.939,5.838C169.822,248.068,170.998,250.995,170.596,253.842z"/>
								<g>
									<g>
										<path style="fill:#D81159;" d="M173.585,196.331l1.255-0.989c4.977-3.92,12.19-3.063,16.11,1.914l0,0
											c3.92,4.977,3.063,12.19-1.914,16.11l-1.255,0.989c-0.71,0.559-1.738,0.437-2.297-0.273l-12.172-15.454
											C172.753,197.918,172.875,196.89,173.585,196.331z"/>
										<path style="fill:#FF3D83;" d="M189.875,198.801c1.65,1.937,2.279,4.698,1.632,7.159c-0.291,1.108-1.054,2.304-2.2,2.312
											c-1.109,0.008-1.895-1.125-2.136-2.207c-0.241-1.082-0.154-2.236-0.548-3.272c-0.472-1.243-1.557-2.127-2.408-3.149
											c-1.079-1.295-2.063-3.856,0.462-3.578C186.666,196.285,188.577,197.277,189.875,198.801z"/>
									</g>
									<g>
										<path style="fill:#FFBC8F;" d="M131.644,227.55c0,0,12.884,26.77,43.093,18.357c4.453-1.24,9.001-4.441,10.167-8.914
											c2.825-10.832,9.493-25.855-12.984-48.753c0,0-15.932-20.052-39.679,0.816C113.018,205.949,131.644,227.55,131.644,227.55
											z"/>
										<g>
											<g>
												<path style="fill:#FF8742;" d="M163.639,204.971c0.591,1.438,2.382,0.704,4.594-0.204
													c2.212-0.907,7.895-3.99,7.57-4.785c-0.327-0.795-6.537,1.001-8.748,1.907
													C164.843,202.796,163.048,203.532,163.639,204.971z"/>
												<path style="fill:#FF8742;" d="M153.967,211.422c1.044,1.152-0.39,2.453-2.161,4.059
													c-1.77,1.606-6.999,5.41-7.577,4.774c-0.577-0.637,3.717-5.47,5.487-7.076
													C151.486,211.572,152.922,210.269,153.967,211.422z"/>
											</g>
										</g>
										<g>
											<g>
												<g>
													<path style="fill:#FF887F;" d="M177.206,217.425c-0.355,1.391-0.847,2.467-1.098,2.403
														c-0.252-0.065-0.168-1.244,0.186-2.636c0.356-1.392,0.847-2.467,1.099-2.403
														C177.645,214.853,177.562,216.034,177.206,217.425z"/>
													<path style="fill:#FF887F;" d="M179.678,215.998c-0.355,1.391-0.847,2.467-1.1,2.403
														c-0.251-0.064-0.168-1.245,0.188-2.636c0.355-1.391,0.847-2.466,1.099-2.402
														C180.115,213.427,180.031,214.608,179.678,215.998z"/>
													<path style="fill:#FF887F;" d="M182.526,214.5c-0.355,1.391-0.847,2.467-1.1,2.403
														c-0.252-0.063-0.167-1.244,0.188-2.635c0.354-1.391,0.847-2.467,1.098-2.403
														C182.965,211.928,182.88,213.109,182.526,214.5z"/>
												</g>
												<g>
													<path style="fill:#FF887F;" d="M151.001,230.801c-0.354,1.391-0.847,2.467-1.098,2.403
														c-0.251-0.065-0.168-1.244,0.187-2.636c0.355-1.392,0.847-2.467,1.099-2.403
														C151.44,228.23,151.357,229.41,151.001,230.801z"/>
													<path style="fill:#FF887F;" d="M153.473,229.374c-0.355,1.39-0.847,2.467-1.1,2.403
														c-0.251-0.064-0.167-1.245,0.188-2.637c0.355-1.39,0.847-2.466,1.099-2.401
														C153.911,226.803,153.827,227.984,153.473,229.374z"/>
													<path style="fill:#FF887F;" d="M156.322,227.876c-0.355,1.392-0.847,2.467-1.1,2.403
														c-0.252-0.064-0.167-1.245,0.188-2.635c0.354-1.392,0.847-2.468,1.098-2.402
														C156.76,225.305,156.675,226.486,156.322,227.876z"/>
												</g>
											</g>
										</g>
										<g>
											<path style="fill:#F09454;" d="M165.548,225.143c1.696-0.28,2.964-1.096,3.917-2.203
												c0.483-0.527,0.986-1.219,0.992-2.021c0.037-0.791-0.506-1.539-1.202-1.725c-0.701-0.194-1.186,0.107-1.775,0.592
												c-0.559,0.474-1.218,1.271-2.351,1.533c-0.56,0.12-1.285,0.016-1.765-0.384c-0.483-0.386-0.724-0.877-0.869-1.334
												c-0.291-0.944-0.17-1.724-0.49-2.513l0.111-0.087c0.739,0.567,1.011,1.56,1.395,2.151
												c0.193,0.309,0.423,0.557,0.634,0.661c0.213,0.093,0.393,0.117,0.651,0.038c0.55-0.125,1.118-0.609,1.89-1.137
												c0.385-0.251,0.846-0.51,1.395-0.582c0.548-0.085,1.119,0.091,1.525,0.374c0.833,0.576,1.232,1.496,1.308,2.391
												c0.083,0.891-0.007,1.873-0.489,2.719c-0.989,1.652-3.238,2.429-4.898,1.666L165.548,225.143z"/>
										</g>
										<g>
											<g>
												<g>
													<g>
														<path style="fill:#FFBC8F;" d="M130.386,221.716c-1.458,0.994-1.753,3.033-1.549,4.786
															c0.408,3.497,2.322,6.792,5.158,8.878c2.836,2.086,6.552,2.932,10.012,2.28c0.662-0.125,1.385-0.355,1.707-0.946
															c0.337-0.619,0.103-1.383-0.156-2.039c-1.578-3.995-3.909-7.836-6.883-10.95
															C136.958,221.927,132.653,220.171,130.386,221.716z"/>
														<path style="fill:#FFA161;" d="M134.151,224.611c-1.251,0.7-1.932,2.201-1.863,3.632
															c0.069,1.431,0.803,2.774,1.808,3.796c1.004,1.022,2.265,1.755,3.558,2.374c1.004,0.481,2.258,0.882,3.171,0.244
															c1.021-0.713,0.943-2.242,0.609-3.441C140.688,228.532,138.034,222.439,134.151,224.611z"/>
													</g>
												</g>
											</g>
											<g>
												<g>
													<path style="fill:#FFB37F;" d="M141.15,229.12c-1.028-0.484-1.95-0.861-2.942-1.094
														c-0.988-0.248-1.979-0.34-3.115-0.387c0.952-0.655,2.209-0.758,3.329-0.49
														C139.54,227.431,140.607,228.101,141.15,229.12z"/>
												</g>
												<g>
													<path style="fill:#FFB37F;" d="M138.574,227.659c-0.304,0.493-0.577,0.962-0.764,1.424
														c-0.179,0.465-0.252,0.906-0.116,1.28c0.115,0.388,0.459,0.727,0.823,1.08l0.628,0.488
														c0.223,0.158,0.452,0.315,0.674,0.514c-0.289-0.01-0.573-0.061-0.861-0.112c-0.28-0.071-0.554-0.186-0.828-0.301
														c-0.519-0.289-1.057-0.706-1.294-1.39c-0.224-0.692-0.001-1.417,0.36-1.901
														C137.557,228.243,138.028,227.869,138.574,227.659z"/>
												</g>
											</g>
										</g>
										<path style="fill:#A3572A;" d="M158.292,219.733c0.226,1.854-1.093,3.54-2.947,3.767c-1.854,0.226-3.54-1.093-3.767-2.947
											c-0.226-1.854,1.093-3.541,2.947-3.767C156.379,216.56,158.066,217.879,158.292,219.733z"/>
										<path style="fill:#A3572A;" d="M174.762,209.607c0.226,1.854-1.093,3.541-2.947,3.767
											c-1.854,0.226-3.54-1.093-3.767-2.947c-0.226-1.854,1.093-3.54,2.947-3.767
											C172.85,206.434,174.536,207.753,174.762,209.607z"/>
										<path style="fill:#FFFFFF;" d="M171.956,229.76c1.738-1.276,3.145-3,4.036-4.976c0.323-0.715,1.354-0.678,1.601,0.066
											c0.412,1.238,0.721,2.503,0.793,3.802c0.117,2.105-0.474,4.341-2.008,5.787c-1.553,1.463-3.85,1.911-5.97,1.675
											c-1.116-0.124-9.107-2.101-7.547-3.989c0.429-0.52,1.299-0.105,1.841-0.052c0.799,0.078,1.649-0.041,2.434-0.192
											C168.897,231.545,170.537,230.801,171.956,229.76z"/>
									</g>
									<g>
										<path style="fill:#361220;" d="M151.238,207.033c0.788-3.218,0.217-6.746-1.545-9.552
											c0.494,7.39-3.234,14.919-9.412,19.005c-2.523,1.669-5.378,2.778-7.94,4.386c-2.562,1.608-4.923,3.896-5.588,6.847
											c-4.249-5.586-6.65-12.554-6.743-19.572c-0.094-7.018,2.12-14.047,6.219-19.744c3.312-4.604,7.964-8.4,13.433-9.898
											c3.501-0.959,7.332-0.885,10.762,0.329c3.889,1.376,5.442,3.047,6.161,7.037
											C157.913,193.245,155.984,201.206,151.238,207.033z"/>
										<path style="fill:#361220;" d="M169.971,183.219c2.179,2.363,3.717,5.235,5.644,7.807c1.927,2.572,4.43,4.947,7.571,5.63
											c-3.18,1.476-6.952,0.288-10.045-1.364c-3.093-1.652-6.054-3.798-9.52-4.326c-2.929-0.446-5.96,0.318-8.864-0.267
											c-3.221-0.648-5.878-3.158-7.07-6.172c-1.528-3.863-0.595-5.653,3.314-6.666
											C157.65,176.138,165.278,178.13,169.971,183.219z"/>
									</g>
									<path style="fill:#361220;" d="M143.623,229.116c0.546,0.697,1.163,1.385,1.38,2.244c0.217,0.858-0.146,1.945-1.001,2.174
										c-0.629,0.168-1.302-0.188-1.706-0.699c-0.404-0.51-0.599-1.15-0.8-1.768c-0.571-1.758-1.272-3.499-2.374-4.982
										c-1.103-1.483-2.649-2.698-4.451-3.106c-2.024-0.458-4.558-0.049-5.802-1.71c-0.782-1.044-0.646-2.571,0.028-3.688
										c0.674-1.117,1.787-1.896,2.922-2.54c1.96-1.112,4.739-2.533,7.057-2.491c2.389,0.043,1.537,1.827,1.287,3.504
										C139.482,220.613,140.783,225.489,143.623,229.116z"/>
									<g>
										<path style="fill:none;stroke:#D81159;stroke-width:4.6377;stroke-miterlimit:10;" d="M131.827,225.004
											c-4.467-10.734-1.782-24.055,6.495-32.219c8.277-8.164,21.634-10.667,32.305-6.052c5.141,2.223,9.524,5.854,13.829,9.436"
											/>
										<g>
											<path style="fill:#D81159;" d="M145.587,238.375l-1.384,0.799c-5.487,3.168-12.503,1.288-15.671-4.199h0
												c-3.168-5.487-1.288-12.503,4.199-15.671l1.384-0.799c0.782-0.452,1.783-0.184,2.234,0.599l9.836,17.036
												C146.637,236.923,146.37,237.923,145.587,238.375z"/>
											<path style="fill:#FF3D83;" d="M135.484,238.025c0.919,0.437,2.205,0.628,2.796-0.2c0.409-0.573,0.268-1.362,0.051-2.032
												c-1.064-3.282-3.598-6.056-6.771-7.411c-0.526-0.225-1.089-0.415-1.658-0.359c-2.582,0.252,0.007,4.084,0.673,5.199
												C131.767,235.214,133.358,237.014,135.484,238.025z"/>
										</g>
									</g>
								</g>
							</g>
						</g>
					</g>
				</g>
				<path style="fill:#80EAF7;" d="M155.652,362.58c1.953,6.062,8.747,9.277,15.089,9.854c6.342,0.577,12.723-0.764,19.083-0.428
					c11.315,0.598,21.59,6.384,32.247,10.234c10.657,3.85,23.511,5.488,32.543-1.353l-13.232,21.972l-89.839-17.613L155.652,362.58z
					"/>
				<path style="fill:#91F3FF;" d="M153.778,410.264c-7.635-0.091-15.593-0.842-22.097-4.844
					c-6.504-4.001-11.045-12.102-8.731-19.379c1.524-4.792,5.556-8.272,8.542-12.318c4.609-6.246,6.796-14.233,6.011-21.956
					c-0.251-2.467-0.793-4.931-0.581-7.401c0.212-2.47,1.362-5.048,3.591-6.136c3.748-1.829,8.224,1.61,9.509,5.578
					c1.285,3.968,0.566,8.272,0.85,12.433c0.284,4.161,2.16,8.823,6.167,9.979c2.054,0.593,4.409,0.166,6.24,1.272
					c2.683,1.62,2.719,5.535,1.75,8.516c-0.969,2.98-2.628,5.931-2.207,9.037c0.499,3.681,3.91,6.413,7.506,7.346
					c3.596,0.933,7.385,0.453,11.079,0.066c3.695-0.387,7.544-0.657,11.019,0.655c3.475,1.312,6.461,4.651,6.167,8.354
					c-0.538,6.77-12.713,6.366-17.455,7C172.073,409.678,162.928,410.373,153.778,410.264z"/>
			</g>
		</g>
		<g>
			<path style="fill:#EBF5FF;" d="M153.662,143.569c-2.823-3.744-8.503-5.068-12.564-2.961c6.774-5.095,10.514-14.21,8.485-22.448
				c-2.189-8.887-11.341-15.705-20.428-14.614c-9.087,1.091-16.5,10.502-14.831,19.501c-1.504-4.807-4.523-9.33-8.991-11.654
				c-4.468-2.325-10.467-1.988-14.035,1.567c-3.568,3.555-3.565,10.341,0.537,13.264c-6.116-0.236-12.572-0.009-17.825,3.132
				c-5.253,3.141-8.687,10.098-5.995,15.595c1.602,3.271,5.002,5.368,8.532,6.265c3.53,0.897,7.229,0.757,10.868,0.611
				c-5.264,2.069-10.72,4.268-14.543,8.435c-3.823,4.168-5.464,10.921-2.181,15.525c2.638,3.7,7.717,4.996,12.21,4.312
				c4.493-0.684,8.549-3.001,12.446-5.339c-2.499,5.343,0.201,12.33,5.406,15.106c5.204,2.777,12.101,1.428,16.32-2.694
				c4.219-4.122,5.778-10.57,4.534-16.336c2.538,3.992,8.063,5.77,12.453,4.008c3.313-1.33,4.068-3.828,5.207-6.232l12.477,12.256
				l-2.7-19.269c1.48-0.688,2.886-1.58,4.047-3.064C156.396,154.305,156.895,147.855,153.662,143.569z"/>
			<g>
				<path style="fill:#D81159;" d="M109.766,161.808c-2.122-3.03-6.523-0.968-6.523-0.968l-2.2,1.115l4.611,9.1l-2.9,1.469
					c-1.27,0.644-1.778,2.195-1.134,3.465c0.644,1.27,2.195,1.778,3.465,1.135l2.65-1.343c1.353-0.686,1.894-2.338,1.209-3.691
					l-0.566-1.117l-0.524-1.033l-3.555-7.015C106.198,161.082,109.766,161.808,109.766,161.808z"/>
				<path style="fill:#D81159;" d="M133.838,134.048c-3.46-4.941-10.637-1.578-10.637-1.578l-3.587,1.818l7.519,14.839l-4.729,2.396
					c-2.071,1.05-2.9,3.58-1.85,5.651c1.05,2.071,3.58,2.9,5.651,1.85l4.321-2.19c2.206-1.118,3.089-3.813,1.971-6.02l-0.923-1.821
					l-0.854-1.685l-5.797-11.439C128.02,132.866,133.838,134.048,133.838,134.048z"/>
				<path style="fill:#D81159;" d="M105.405,131.835c-2.48-3.542-7.625-1.131-7.625-1.131l-2.572,1.303l5.39,10.638l-3.39,1.718
					c-1.485,0.753-2.079,2.566-1.326,4.051c0.752,1.485,2.566,2.079,4.051,1.326l3.098-1.57c1.582-0.801,2.214-2.734,1.413-4.315
					l-0.662-1.305l-0.612-1.208l-4.155-8.2C101.234,130.987,105.405,131.835,105.405,131.835z"/>
			</g>
			<g>
				<g>
					<path style="fill:#D81159;" d="M114.53,147.059c1.791,0,1.793-2.783,0-2.783C112.739,144.276,112.736,147.059,114.53,147.059
						L114.53,147.059z"/>
				</g>
			</g>
			<g>
				<g>
					<path style="fill:#D81159;" d="M113.727,129.611c1.791,0,1.793-2.783,0-2.783C111.937,126.829,111.934,129.611,113.727,129.611
						L113.727,129.611z"/>
				</g>
			</g>
			<g>
				<g>
					<path style="fill:#D81159;" d="M133.983,121.389c1.79,0,1.793-2.783,0-2.783C132.192,118.606,132.189,121.389,133.983,121.389
						L133.983,121.389z"/>
				</g>
			</g>
			<g>
				<g>
					<path style="fill:#D81159;" d="M142.005,153.276c1.79,0,1.793-2.783,0-2.783C140.214,150.493,140.211,153.276,142.005,153.276
						L142.005,153.276z"/>
				</g>
			</g>
			<g>
				<g>
					<path style="fill:#D81159;" d="M93.071,168.919c1.79,0,1.793-2.783,0-2.783C91.28,166.136,91.277,168.919,93.071,168.919
						L93.071,168.919z"/>
				</g>
			</g>
			<g>
				<g>
					<path style="fill:#D81159;" d="M90.664,158.089c1.791,0,1.793-2.783,0-2.783C88.874,155.307,88.871,158.089,90.664,158.089
						L90.664,158.089z"/>
				</g>
			</g>
			<g>
				<g>
					<path style="fill:#D81159;" d="M80.837,142.246c1.79,0,1.793-2.783,0-2.783C79.047,139.463,79.044,142.246,80.837,142.246
						L80.837,142.246z"/>
				</g>
			</g>
			<g>
				<g>
					<path style="fill:#D81159;" d="M129.17,168.718c1.79,0,1.793-2.783,0-2.783C127.379,165.936,127.376,168.718,129.17,168.718
						L129.17,168.718z"/>
				</g>
			</g>
			<g>
				<g>
					<path style="fill:#D81159;" d="M100.09,122.392c1.79,0,1.793-2.783,0-2.783C98.3,119.609,98.297,122.392,100.09,122.392
						L100.09,122.392z"/>
				</g>
			</g>
			<g>
				<g>
					<path style="fill:#D81159;" d="M137.392,140.466c-0.067,0-0.134,0-0.201,0c-0.752,0-1.391,0.639-1.391,1.391
						c0,0.755,0.637,1.391,1.391,1.391c0.067,0,0.134,0,0.201,0c0.752,0,1.391-0.639,1.391-1.391
						C138.784,141.103,138.147,140.466,137.392,140.466L137.392,140.466z"/>
				</g>
			</g>
			<g>
				<g>
					<path style="fill:#D81159;" d="M113.527,170.323c1.79,0,1.793-2.783,0-2.783C111.736,167.54,111.733,170.323,113.527,170.323
						L113.527,170.323z"/>
				</g>
			</g>
		</g>
	</g>
	<g>
		<path style="opacity:0.22;fill:#CCF9FF;" d="M425.181,219.903c9.036-8.512,17.804-17.546,25.66-27.16
			c8.796-10.765,17.902-21.473,27.945-31.147h-26.534c-21.852,18.474-40.381,40.399-59.863,61.297
			c-0.97,1.04-2.013,1.755-3.081,2.193v13.752h17.172C411.109,231.068,418.491,226.204,425.181,219.903z"/>
		<path style="opacity:0.22;fill:#CCF9FF;" d="M455.735,238.408c12.232-13.624,27.23-24.602,40.184-37.544
			c9.337-9.329,18.579-18.71,28.624-27.206v-12.062h-18.772c-15.941,11.719-29.055,27.244-41.51,42.437
			c-7.652,9.334-16.063,17.877-24.628,26.368c-3.045,3.019-6.352,5.678-9.626,8.438h25.378
			C455.5,238.695,455.608,238.55,455.735,238.408z"/>
		<path style="opacity:0.22;fill:#CCF9FF;" d="M515.631,224.167c2.92-3.205,5.856-6.382,8.912-9.435v-17.501
			c-5.872,5.647-11.554,11.507-17.308,17.236c-8.574,8.536-18.055,16.185-26.983,24.371h20.988
			C504.611,233.033,511.189,229.044,515.631,224.167z"/>
		<path style="opacity:0.22;fill:#CCF9FF;" d="M425.995,161.596h-18.855c-6.28,6.206-12.242,12.729-17.832,19.535v19.113
			C401.293,187.118,413.184,173.881,425.995,161.596z"/>
	</g>
	<g>
		
			<ellipse transform="matrix(0.9747 -0.2237 0.2237 0.9747 -27.4762 93.8527)" style="fill:#DB115A;" cx="400.509" cy="168.201" rx="7.597" ry="7.597"/>
		<g>
			<path style="fill:#FFFFFF;" d="M400.276,171.673c-0.341,0-0.651-0.026-0.929-0.078c-0.278-0.052-0.518-0.13-0.718-0.234
				c-0.201-0.104-0.357-0.232-0.467-0.384c-0.111-0.152-0.167-0.328-0.167-0.529c0-0.208,0.059-0.382,0.178-0.523
				c0.119-0.141,0.252-0.252,0.401-0.334c0.207,0.156,0.43,0.291,0.667,0.406c0.238,0.115,0.538,0.172,0.902,0.172
				c0.349,0,0.597-0.078,0.746-0.234c0.148-0.156,0.222-0.345,0.222-0.568c0-0.215-0.065-0.393-0.195-0.534
				c-0.13-0.141-0.354-0.212-0.673-0.212c-0.2,0-0.367,0.023-0.501,0.067c-0.134,0.044-0.286,0.108-0.456,0.189
				c-0.364-0.015-0.651-0.113-0.863-0.295c-0.211-0.182-0.317-0.462-0.317-0.84c0-0.022,0-0.05,0-0.083
				c0-0.033,0.004-0.102,0.011-0.206l0.134-1.692c0.022-0.319,0.123-0.571,0.301-0.757c0.178-0.185,0.427-0.278,0.745-0.278h3.206
				c0.045,0.081,0.089,0.189,0.134,0.322c0.044,0.134,0.067,0.275,0.067,0.423c0,0.282-0.063,0.483-0.189,0.601
				c-0.126,0.119-0.286,0.178-0.479,0.178h-2.137l-0.078,1.046c0.141-0.037,0.284-0.071,0.429-0.1
				c0.144-0.03,0.328-0.045,0.551-0.045c0.386,0,0.72,0.058,1.002,0.173c0.282,0.115,0.514,0.273,0.696,0.473
				c0.182,0.2,0.315,0.434,0.401,0.701c0.085,0.267,0.128,0.553,0.128,0.857c0,0.304-0.052,0.597-0.156,0.88
				c-0.104,0.282-0.267,0.529-0.49,0.74c-0.223,0.212-0.506,0.38-0.851,0.506C401.183,171.611,400.765,171.673,400.276,171.673z"/>
		</g>
	</g>
	<g>
		<g>
			<polygon style="fill:#FBB13C;" points="332.758,133.2 308.146,133.2 295.839,154.515 308.146,175.83 332.758,175.83 
				345.065,154.515 			"/>
			<polygon style="fill:#FBC53C;" points="298.868,158.648 311.174,137.333 335.145,137.333 332.758,133.199 308.146,133.199 
				295.839,154.515 308.146,175.83 308.788,175.83 			"/>
			<polygon style="fill:#FB853C;" points="332.758,133.199 332.362,133.199 342.793,151.267 330.487,172.582 306.271,172.582 
				308.146,175.83 332.758,175.83 345.065,154.515 			"/>
			<g>
				<path style="fill:#FFFFFF;" d="M311.041,158.916c-0.38-0.201-0.736-0.563-1.071-1.088c-0.335-0.524-0.502-1.143-0.502-1.858
					c0-0.692,0.184-1.21,0.552-1.557c0.368-0.346,0.909-0.608,1.624-0.787l2.611-0.636c1.116-0.29,1.674-0.826,1.674-1.607
					c0-0.424-0.207-0.792-0.619-1.105c-0.413-0.312-1.121-0.469-2.126-0.469c-0.915,0-1.774,0.117-2.578,0.352
					c-0.803,0.234-1.451,0.508-1.942,0.82c-0.38-0.289-0.703-0.641-0.971-1.054c-0.268-0.413-0.402-0.909-0.402-1.49
					c0-0.58,0.167-1.088,0.502-1.523c0.335-0.435,0.798-0.792,1.389-1.071c0.591-0.279,1.294-0.486,2.109-0.619
					c0.814-0.134,1.712-0.201,2.695-0.201c2.633,0,4.625,0.586,5.975,1.757c1.35,1.172,2.025,2.706,2.025,4.603
					c0,3.571-2.522,5.858-7.566,6.862L311.041,158.916z M309.937,163.301c0-0.915,0.285-1.668,0.854-2.26
					c0.569-0.591,1.356-0.887,2.36-0.887c1.004,0,1.791,0.296,2.36,0.887c0.569,0.592,0.854,1.345,0.854,2.26
					c0,0.915-0.285,1.669-0.854,2.259c-0.569,0.591-1.356,0.887-2.36,0.887c-1.004,0-1.791-0.296-2.36-0.887
					C310.221,164.97,309.937,164.217,309.937,163.301z"/>
				<path style="fill:#FFFFFF;" d="M324.933,163.335c0-0.915,0.285-1.668,0.854-2.259c0.569-0.591,1.356-0.887,2.36-0.887
					c1.005,0,1.791,0.296,2.36,0.887c0.569,0.592,0.853,1.345,0.853,2.259c0,0.915-0.284,1.669-0.853,2.26
					c-0.569,0.591-1.356,0.887-2.36,0.887c-1.004,0-1.791-0.296-2.36-0.887C325.218,165.003,324.933,164.25,324.933,163.335z
					 M331.093,146.463c0,0.514-0.011,1.256-0.033,2.226c-0.023,0.971-0.067,2.02-0.134,3.147c-0.067,1.127-0.156,2.254-0.268,3.381
					c-0.112,1.127-0.246,2.104-0.401,2.929c-0.09,0.067-0.224,0.134-0.402,0.201c-0.179,0.067-0.368,0.123-0.569,0.167
					c-0.201,0.045-0.401,0.078-0.603,0.101c-0.201,0.022-0.379,0.033-0.536,0.033c-0.647,0-1.188-0.101-1.624-0.301
					c-0.435-0.201-0.709-0.591-0.82-1.172c-0.112-0.513-0.207-1.294-0.285-2.343c-0.078-1.049-0.151-2.187-0.218-3.414
					c-0.067-1.227-0.117-2.444-0.15-3.649c-0.034-1.205-0.05-2.231-0.05-3.08c0.446-0.245,0.954-0.44,1.523-0.586
					c0.569-0.145,1.133-0.217,1.691-0.217c0.915,0,1.624,0.212,2.126,0.636C330.842,144.946,331.093,145.593,331.093,146.463z"/>
			</g>
		</g>
		<g>
			<path style="fill:#DB115A;" d="M313.44,131.631c0-3.96-3.21-7.17-7.17-7.17c-3.96,0-7.17,3.21-7.17,7.17
				c0,3.96,3.21,7.17,7.17,7.17C310.23,138.801,313.44,135.591,313.44,131.631z"/>
			<g>
				<path style="fill:#FFFFFF;" d="M308.366,128.9c0,0.147-0.033,0.289-0.1,0.426c-0.067,0.136-0.145,0.24-0.236,0.31
					c-0.189-0.084-0.387-0.149-0.594-0.195c-0.206-0.045-0.397-0.068-0.572-0.068c-0.42,0-0.744,0.11-0.972,0.331
					c-0.228,0.221-0.38,0.538-0.457,0.951c0.14-0.098,0.325-0.188,0.557-0.268c0.231-0.08,0.469-0.121,0.714-0.121
					c0.644,0,1.157,0.186,1.539,0.557c0.381,0.371,0.572,0.903,0.572,1.596c0,0.301-0.053,0.589-0.158,0.862
					c-0.105,0.273-0.262,0.513-0.473,0.719c-0.21,0.207-0.471,0.371-0.782,0.494c-0.312,0.123-0.674,0.184-1.087,0.184
					c-0.827,0-1.476-0.277-1.949-0.83c-0.473-0.553-0.709-1.341-0.709-2.364c0-0.581,0.072-1.093,0.216-1.534
					c0.144-0.441,0.347-0.809,0.609-1.103c0.263-0.294,0.576-0.515,0.94-0.662c0.364-0.147,0.767-0.221,1.208-0.221
					c0.56,0,0.989,0.077,1.287,0.231C308.218,128.35,308.366,128.585,308.366,128.9z M306.307,131.631
					c-0.133,0-0.275,0.028-0.425,0.084c-0.151,0.056-0.271,0.133-0.362,0.231v0.263c0,0.378,0.079,0.648,0.236,0.809
					c0.158,0.161,0.348,0.242,0.572,0.242c0.231,0,0.405-0.077,0.52-0.231c0.115-0.154,0.173-0.354,0.173-0.599
					c0-0.245-0.061-0.439-0.184-0.583C306.715,131.703,306.539,131.631,306.307,131.631z"/>
			</g>
		</g>
	</g>
	<g>
		<g>
			
				<ellipse transform="matrix(0.9259 -0.3777 0.3777 0.9259 -6.3468 152.281)" style="fill:#D81159;" cx="385.021" cy="92.32" rx="21.354" ry="21.355"/>
			
				<ellipse transform="matrix(0.3845 -0.9231 0.9231 0.3845 156.3284 409.1822)" style="fill:#FBB13C;" cx="385.021" cy="87.356" rx="7.901" ry="7.901"/>
			<path style="fill:#FB8F3C;" d="M383.74,81.733c4.364,0,7.901,3.538,7.901,7.901c0,0.946-0.175,1.85-0.48,2.691
				c1.1-1.357,1.761-3.085,1.761-4.968c0-4.364-3.537-7.901-7.901-7.901c-3.417,0-6.319,2.174-7.421,5.21
				C379.049,82.878,381.26,81.733,383.74,81.733z"/>
			<g>
				<defs>
					
						<ellipse id="SVGID_1_" transform="matrix(0.9259 -0.3777 0.3777 0.9259 -6.3468 152.281)" cx="385.021" cy="92.32" rx="21.354" ry="21.355"/>
				</defs>
				<clipPath id="SVGID_00000131327679674182212920000018223635084988764836_">
					<use xlink:href="#SVGID_1_"  style="overflow:visible;"/>
				</clipPath>
				<path style="clip-path:url(#SVGID_00000131327679674182212920000018223635084988764836_);fill:#FBB13C;" d="M385.021,96.849
					L385.021,96.849c6.287,0,11.384,5.097,11.384,11.384v5.758h-22.769v-5.758C373.637,101.946,378.734,96.849,385.021,96.849z"/>
				<path style="clip-path:url(#SVGID_00000131327679674182212920000018223635084988764836_);fill:#FB8F3C;" d="M385.021,96.849
					c-5.708,0-10.42,4.205-11.243,9.683c1.701-4.146,5.773-7.068,10.532-7.068l0,0c6.287,0,11.384,5.097,11.384,11.384v3.143h0.712
					v-5.758C396.406,101.946,391.309,96.849,385.021,96.849z"/>
			</g>
			<path style="opacity:0.26;fill:#D81159;" d="M401.043,78.209c1.674,3.047,2.628,6.545,2.628,10.266
				c0,11.794-9.561,21.355-21.354,21.355c-6.384,0-12.109-2.804-16.022-7.244c3.63,6.608,10.655,11.088,18.727,11.088
				c11.794,0,21.354-9.561,21.354-21.355C406.376,86.909,404.36,81.972,401.043,78.209z"/>
		</g>
		<g>
			<path style="fill:#28B4DE;" d="M378.66,75.037c0-3.96-3.21-7.17-7.17-7.17c-3.96,0-7.17,3.21-7.17,7.17
				c0,3.96,3.21,7.17,7.17,7.17C375.45,82.207,378.66,78.997,378.66,75.037z"/>
			<g>
				<path style="fill:#FFFFFF;" d="M367.748,73.545l-1.051,0.326c-0.105-0.07-0.21-0.168-0.315-0.294
					c-0.105-0.126-0.157-0.301-0.157-0.525c0-0.42,0.256-0.714,0.767-0.882l1.176-0.399h0.389c0.301,0,0.539,0.088,0.714,0.262
					c0.175,0.175,0.263,0.413,0.263,0.714v5.473c-0.078,0.014-0.191,0.033-0.342,0.058c-0.15,0.024-0.303,0.037-0.456,0.037
					c-0.155,0-0.292-0.011-0.416-0.032c-0.122-0.021-0.226-0.063-0.309-0.126c-0.084-0.063-0.149-0.149-0.194-0.257
					c-0.046-0.109-0.068-0.251-0.068-0.425V73.545z"/>
				<path style="fill:#FFFFFF;" d="M376.245,75.037c0,0.539-0.07,1.019-0.209,1.439c-0.14,0.42-0.335,0.772-0.583,1.056
					c-0.249,0.283-0.546,0.499-0.893,0.646c-0.346,0.147-0.723,0.221-1.129,0.221c-0.413,0-0.793-0.073-1.14-0.221
					c-0.346-0.147-0.645-0.362-0.892-0.646c-0.249-0.284-0.442-0.636-0.578-1.056c-0.137-0.42-0.205-0.9-0.205-1.439
					c0-0.539,0.068-1.017,0.205-1.434c0.136-0.416,0.329-0.767,0.578-1.05c0.248-0.284,0.546-0.499,0.892-0.646
					c0.347-0.147,0.727-0.221,1.14-0.221c0.406,0,0.783,0.074,1.129,0.221c0.347,0.147,0.645,0.362,0.893,0.646
					c0.248,0.283,0.443,0.634,0.583,1.05C376.175,74.02,376.245,74.498,376.245,75.037z M374.449,75.037
					c0-0.616-0.089-1.092-0.268-1.429c-0.179-0.336-0.433-0.504-0.762-0.504s-0.58,0.168-0.751,0.504
					c-0.171,0.336-0.257,0.812-0.257,1.429c0,0.616,0.086,1.094,0.257,1.434c0.172,0.339,0.422,0.509,0.751,0.509
					s0.583-0.17,0.762-0.509C374.36,76.131,374.449,75.654,374.449,75.037z"/>
			</g>
		</g>
	</g>
	<g>
		<g>
			<path style="fill:#238C89;" d="M610.474,280.594c-0.495-3.007-0.825-6.287,0.695-8.929c1.519-2.642,5.639-3.903,7.657-1.62
				c1.118,1.265,1.307,3.229,2.624,4.288c1.704,1.37,4.427,0.362,5.648-1.452s1.378-4.113,1.585-6.29
				c0.658-6.922,2.21-13.759,4.606-20.287c0.772-2.103,2.18-4.548,4.417-4.425c3.112,0.17,3.483,4.66,2.607,7.651
				c-0.876,2.991-1.516,7.159,1.35,8.383c1.811,0.774,3.951-0.41,5.038-2.053c1.087-1.642,1.44-3.644,2.034-5.522
				c2.941-9.286,11.663-15.317,19.824-20.635c3.403-2.217,7.771-4.484,11.275-2.431c2.65,1.552,3.539,5.119,2.883,8.12
				s-2.52,5.573-4.339,8.048c-5.885,8.007-11.77,16.014-17.655,24.02c4.594,3.471,10.607-3.95,16.273-2.932
				c4.55,0.818,6.266,7.107,4.062,11.172c-2.204,4.065-6.786,6.19-11.199,7.572s-9.108,2.365-12.782,5.171
				c-0.979,0.747-1.922,1.721-2.053,2.946c-0.242,2.253,2.366,3.815,4.631,3.876c2.265,0.061,4.528-0.739,6.766-0.389
				c5.78,0.903,7.651,9.135,4.57,14.108c-3.081,4.973-8.949,7.34-14.425,9.396c-5.634,2.116-11.357,4.252-17.353,4.763
				c-10.731,0.916-15.046-2.9-19.049-11.743C615.683,301.503,612.244,291.341,610.474,280.594z"/>
			<path style="fill:#28A19D;" d="M617.837,285.817c-0.383-1.438-0.737-2.961-0.352-4.398c0.385-1.438,1.77-2.72,3.236-2.46
				c2.259,0.401,2.613,3.574,4.346,5.077c2.094,1.816,5.629,0.444,6.993-1.969c1.364-2.413,1.19-5.365,0.967-8.128
				c-0.223-2.763-0.421-5.708,0.908-8.141c0.708-1.297,2.528-2.389,3.561-1.331c0.619,0.634,0.521,1.655,0.805,2.494
				c0.712,2.109,3.759,2.507,5.651,1.334c1.892-1.172,2.928-3.296,3.995-5.249c2.242-4.104,5.03-7.909,8.267-11.285
				c0.905-0.944,2.013-1.921,3.318-1.837c1.422,0.09,2.484,1.495,2.65,2.91c0.166,1.415-0.355,2.815-0.942,4.113
				c-1.959,4.333-4.768,8.28-8.222,11.549c-1.172,1.11-2.54,2.48-2.203,4.059c0.509,2.383,3.998,2.28,6.205,1.247
				c2.207-1.033,5.022-2.345,6.816-0.696c-0.396,3.299-3.054,5.855-5.806,7.718c-2.752,1.862-5.829,3.397-7.916,5.983
				c-2.087,2.586-2.805,6.713-0.49,9.097c2.705,2.786,8.064,1.906,10.191,5.154c1.328,2.028,0.646,4.872-0.931,6.714
				c-1.577,1.842-3.848,2.913-6.048,3.932c-3.892,1.802-7.861,3.627-12.116,4.165C625.337,317.812,620.884,297.258,617.837,285.817z
				"/>
			
				<path style="fill:none;stroke:#1D7370;stroke-width:3.1761;stroke-linecap:round;stroke-linejoin:round;stroke-miterlimit:10;" d="
				M630.176,373.352c-10.387-32.635-5.923-69.686,11.918-98.921"/>
			<g>
				<path style="fill:#1D7370;" d="M635.756,285.533c-1.042-1.935-1.736-4.023-2.212-6.156c-0.476-2.134-0.736-4.321-0.763-6.511
					c-0.036-2.19,0.168-4.383,0.585-6.529c0.418-2.145,1.058-4.251,2.05-6.212c-0.028,2.195-0.14,4.313-0.203,6.422
					c-0.064,2.107-0.072,4.198-0.051,6.288c0.03,2.09,0.096,4.18,0.216,6.285C635.497,281.227,635.667,283.34,635.756,285.533z"/>
			</g>
			<g>
				<path style="fill:#1D7370;" d="M628.878,310.04c2.649-0.238,5.232-0.428,7.798-0.705c2.564-0.277,5.101-0.644,7.624-1.085
					c2.522-0.45,5.032-0.968,7.536-1.583c2.506-0.615,5-1.317,7.572-1.993c-2.148,1.573-4.531,2.793-7.008,3.764
					c-2.479,0.97-5.059,1.702-7.688,2.157c-2.627,0.464-5.301,0.658-7.962,0.59C634.09,311.117,631.434,310.784,628.878,310.04z"/>
			</g>
			<g>
				<path style="fill:#1D7370;" d="M630.961,294.509c2.832-1.156,5.577-2.335,8.234-3.669c2.647-1.347,5.225-2.798,7.678-4.441
					c2.477-1.607,4.828-3.401,7.111-5.301c2.275-1.914,4.444-3.968,6.627-6.112c-1.384,2.733-3.236,5.223-5.349,7.462
					c-2.105,2.254-4.511,4.223-7.08,5.939c-2.593,1.679-5.353,3.111-8.255,4.154C637.036,293.596,634.019,294.314,630.961,294.509z"
					/>
			</g>
			<g>
				<path style="fill:#1D7370;" d="M628.485,304.469c-1.583-1.118-2.908-2.532-4.073-4.061c-1.154-1.539-2.123-3.22-2.892-4.987
					c-0.77-1.766-1.339-3.622-1.678-5.516c-0.326-1.895-0.455-3.829-0.189-5.749c0.725,1.794,1.33,3.54,1.996,5.253
					c0.652,1.715,1.334,3.397,2.055,5.063c0.723,1.665,1.489,3.311,2.298,4.958C626.799,301.085,627.666,302.717,628.485,304.469z"
					/>
			</g>
		</g>
		<g>
			<path style="fill:#238C89;" d="M605.409,284.825c-0.734-2.483-1.708-5.069-3.768-6.638c-2.06-1.569-5.506-1.561-6.858,0.648
				c-0.741,1.211-0.812,2.919-2.017,3.67c-1.148,0.716-2.742,0.061-3.539-1.033c-0.796-1.094-1.015-2.488-1.273-3.816
				c-1.197-6.148-3.749-12.028-7.422-17.101c-1.255-1.734-2.751-3.453-4.786-4.116c-2.035-0.663-4.693,0.18-5.313,2.229
				c-0.491,1.62,0.384,3.293,0.833,4.925c0.449,1.632,0.129,3.869-1.511,4.288c-1.433,0.366-2.689-0.935-3.679-2.033
				c-3.717-4.121-8.659-7.122-14.029-8.52c-3.699-0.963-8.406-0.783-10.383,2.489c-1.263,2.089-0.924,4.843,0.233,6.993
				c1.156,2.15,3.012,3.824,4.836,5.446c5.571,4.955,11.193,9.853,16.864,14.693c-0.878,1.736-3.206,2.179-5.12,1.832
				s-3.712-1.257-5.651-1.42c-1.939-0.163-4.226,0.789-4.579,2.702c-0.364,1.971,1.453,3.633,3.189,4.634
				c3.917,2.261,8.442,3.458,12.964,3.432c2.469-0.014,5.02-0.374,7.347,0.45s4.293,3.413,3.364,5.701
				c-1.118,2.751-5.017,2.726-7.874,1.913c-2.856-0.812-6.314-1.806-8.481,0.224c-1.83,1.715-1.555,4.863-0.046,6.866
				c1.51,2.002,3.903,3.109,6.234,4.033c6.904,2.735,14.172,4.543,21.549,5.382c4.854,0.552,13.339,2.196,17.657-0.982
				c3.885-2.859,3.787-9.643,3.994-13.914C608.522,300.063,607.604,292.257,605.409,284.825z"/>
			<path style="fill:#28A19D;" d="M601.311,291.706c-0.243-1.5-0.561-3.064-1.532-4.233c-0.971-1.169-2.802-1.764-4.05-0.898
				c-1.296,0.899-1.343,2.751-1.405,4.328c-0.062,1.576-0.561,3.494-2.095,3.862c-1.916,0.459-3.212-1.855-3.875-3.71
				c-2.119-5.935-5.015-11.592-8.591-16.781c-0.983-1.426-2.491-2.993-4.15-2.494c-2.126,0.639-1.928,3.784-0.833,5.716
				c1.095,1.932,2.691,4.064,1.878,6.13c-3.378-3.615-6.757-7.231-10.135-10.846c-0.896-0.958-1.971-1.994-3.281-1.926
				c-1.817,0.094-2.825,2.399-2.301,4.142c0.524,1.743,2.019,2.988,3.439,4.125c4.544,3.638,9.088,7.276,13.632,10.914
				c-3.521,0.633-7.043,1.266-10.564,1.899c-0.416,0.075-0.855,0.16-1.173,0.44c-0.706,0.622-0.369,1.881,0.406,2.413
				c0.776,0.532,1.783,0.545,2.723,0.534c3.268-0.038,6.597-0.127,9.731,0.802c3.133,0.928,6.1,3.078,7.102,6.188
				c1.003,3.11-0.63,7.085-3.804,7.864c-1.73,0.425-3.56-0.103-5.326,0.129c-1.766,0.232-3.642,1.89-2.971,3.54
				c0.448,1.102,1.759,1.529,2.919,1.79c4.015,0.903,8.126,1.377,12.241,1.422c2.657,0.029,9.517,0.674,11.639-1.202
				c2.155-1.905,1.419-8.072,1.429-10.754C602.381,300.615,602.03,296.131,601.311,291.706z"/>
			<g>
				
					<path style="fill:none;stroke:#1D7370;stroke-width:3.1761;stroke-linecap:round;stroke-linejoin:round;stroke-miterlimit:10;" d="
					M621.057,377.56c-5.395-32.477-18.463-63.653-37.837-90.271"/>
				<g>
					<g>
						<path style="fill:#1D7370;" d="M586.475,292.38c-1.566,0.618-3.232,0.852-4.897,0.888c-1.666,0.021-3.338-0.191-4.954-0.614
							c-1.616-0.422-3.177-1.058-4.619-1.894c-1.434-0.847-2.77-1.871-3.829-3.18c1.61,0.476,3.097,1.007,4.594,1.47
							c1.49,0.475,2.968,0.907,4.458,1.3c1.49,0.392,2.991,0.741,4.522,1.059C583.283,291.742,584.839,292.007,586.475,292.38z"/>
					</g>
					<g>
						<path style="fill:#1D7370;" d="M599.141,311.438c-0.255-2.007-0.362-3.955-0.502-5.893l-0.387-5.777l-0.426-5.774
							c-0.132-1.939-0.297-3.883-0.322-5.906c0.99,1.768,1.656,3.665,2.169,5.598c0.5,1.937,0.817,3.92,0.954,5.915
							c0.139,1.995,0.102,4.003-0.123,5.991C600.265,307.578,599.872,309.549,599.141,311.438z"/>
					</g>
					<g>
						<path style="fill:#1D7370;" d="M594.36,307.282c-1.164,1.294-2.609,2.278-4.149,3.065c-1.547,0.775-3.211,1.326-4.918,1.643
							c-1.706,0.319-3.457,0.402-5.18,0.233c-1.72-0.181-3.422-0.584-4.972-1.377c1.725-0.191,3.355-0.302,4.965-0.496
							c1.608-0.181,3.185-0.413,4.753-0.702c1.568-0.29,3.124-0.639,4.689-1.047C591.122,308.207,592.683,307.725,594.36,307.282z"
							/>
					</g>
				</g>
			</g>
		</g>
	</g>
	<g>
		<g>
			<rect x="458.899" y="80.969" style="fill:#73D2DE;" width="44.859" height="30.629"/>
			<g>
				<path style="fill:#5CA9B3;" d="M458.899,80.969c2.188,1.274,4.245,2.696,6.312,4.108c2.032,1.452,4.062,2.906,6.033,4.426
					c1.978,1.513,3.921,3.067,5.842,4.645c1.921,1.578,3.81,3.194,5.685,4.824h-2.883c1.873-1.633,3.762-3.248,5.681-4.828
					c1.923-1.576,3.861-3.134,5.841-4.645c1.971-1.522,4.002-2.974,6.033-4.426c2.068-1.411,4.126-2.833,6.315-4.104
					c-1.548,2.004-3.229,3.856-4.899,5.721c-1.706,1.823-3.414,3.645-5.181,5.398c-1.758,1.764-3.558,3.481-5.374,5.179
					c-1.819,1.695-3.668,3.355-5.534,4.997l-1.443,1.271l-1.44-1.271c-1.863-1.644-3.713-3.304-5.53-5
					c-1.817-1.697-3.613-3.418-5.373-5.18c-1.767-1.754-3.475-3.575-5.182-5.398C462.13,84.823,460.45,82.97,458.899,80.969z"/>
			</g>
			
				<line style="fill:none;stroke:#5CA9B3;stroke-width:0.8754;stroke-miterlimit:10;" x1="458.899" y1="111.599" x2="476.381" y2="96.284"/>
			
				<line style="fill:none;stroke:#5CA9B3;stroke-width:0.8754;stroke-miterlimit:10;" x1="487.102" y1="96.284" x2="503.758" y2="111.599"/>
		</g>
		<g>
			<path style="fill:#DB115A;" d="M466.877,79.211c0-3.96-3.21-7.17-7.17-7.17c-3.96,0-7.17,3.21-7.17,7.17
				c0,3.96,3.21,7.17,7.17,7.17C463.667,86.381,466.877,83.171,466.877,79.211z"/>
			<g>
				<path style="fill:#FFFFFF;" d="M456.735,77.798l-1.051,0.326c-0.105-0.07-0.21-0.168-0.315-0.294
					c-0.105-0.126-0.157-0.301-0.157-0.525c0-0.42,0.256-0.714,0.767-0.882l1.176-0.399h0.389c0.301,0,0.539,0.088,0.714,0.262
					c0.175,0.175,0.263,0.413,0.263,0.714v5.473c-0.078,0.014-0.191,0.033-0.342,0.058c-0.15,0.024-0.303,0.037-0.457,0.037
					c-0.155,0-0.292-0.011-0.415-0.032c-0.122-0.021-0.226-0.063-0.31-0.126c-0.084-0.063-0.149-0.149-0.194-0.257
					c-0.046-0.109-0.068-0.251-0.068-0.425V77.798z"/>
				<path style="fill:#FFFFFF;" d="M461.871,75.939c0.399,0,0.753,0.051,1.061,0.153c0.309,0.101,0.571,0.24,0.788,0.415
					c0.217,0.175,0.381,0.382,0.494,0.62c0.112,0.238,0.168,0.494,0.168,0.767c0,0.736-0.416,1.436-1.25,2.101l-1.376,1.103h2.521
					c0.043,0.077,0.083,0.175,0.121,0.294c0.038,0.119,0.057,0.249,0.057,0.389c0,0.252-0.056,0.433-0.168,0.541
					c-0.112,0.109-0.26,0.163-0.441,0.163h-3.645c-0.155-0.105-0.275-0.24-0.362-0.404c-0.088-0.164-0.132-0.359-0.132-0.583
					c0-0.238,0.049-0.439,0.147-0.604c0.098-0.165,0.207-0.296,0.326-0.394l1.45-1.24c0.182-0.154,0.333-0.292,0.451-0.415
					c0.119-0.122,0.215-0.232,0.289-0.331c0.074-0.098,0.127-0.189,0.157-0.273c0.032-0.084,0.048-0.164,0.048-0.242
					c0-0.196-0.086-0.35-0.257-0.462c-0.172-0.112-0.384-0.168-0.636-0.168c-0.28,0-0.53,0.044-0.751,0.132
					c-0.221,0.088-0.404,0.18-0.551,0.278c-0.12-0.084-0.218-0.189-0.295-0.315c-0.077-0.126-0.115-0.273-0.115-0.442
					c0-0.364,0.172-0.635,0.515-0.814C460.828,76.028,461.29,75.939,461.871,75.939z"/>
			</g>
		</g>
	</g>
	<g>
		<polygon style="fill:#8F2D56;" points="650.601,358.431 594.992,358.431 610.873,414.039 634.72,414.039 		"/>
		<path style="fill:#7A274A;" d="M623.684,395.814c-4.376,3.58-9.948,6.163-15.917,7.351l3.105,10.874h23.848l15.88-55.609h-1.147
			C644.902,372.846,635.162,385.771,623.684,395.814z"/>
		<path style="fill:#9E325F;" d="M618.92,369.611c2.316-3.474,4.524-7.266,6.206-11.181h-30.134l6.684,23.406
			C608.583,380.4,614.878,375.17,618.92,369.611z"/>
		<path style="fill:#AD0D48;" d="M648.989,365.319h-52.712c-1.894,0-3.43-1.536-3.43-3.43v-3.262c0-1.895,1.536-3.43,3.43-3.43
			h52.712c1.895,0,3.43,1.536,3.43,3.43v3.262C652.419,363.784,650.883,365.319,648.989,365.319z"/>
	</g>
</g>
</svg>
